<?xml version="1.0" encoding="utf-8"?>
<!-- Generator: Adobe Illustrator 21.1.0, SVG Export Plug-In . SVG Version: 6.00 Build 0)  -->
<svg version="1.1" id="Capa_1" xmlns="http://www.w3.org/2000/svg" xmlns:xlink="http://www.w3.org/1999/xlink" x="0px" y="0px"
	 viewBox="0 0 792 612" style="enable-background:new 0 0 792 612;" xml:space="preserve">
<style type="text/css">
	.st0{fill:#FFED00;}
</style>
<g>
	<g>
		<path d="M538.2,381.6H37.7c-6.6,0-12-5.4-12-12V231.7c0-6.6,5.4-12,12-12h500.5c6.6,0,12,5.4,12,12v137.9
			C550.2,376.2,544.8,381.6,538.2,381.6z"/>
		<g>
			<path d="M278.6,352.4L247,399.6c-2.3,3.5-7.5,5.3-11.5,3.9h0c-4-1.3-5.3-5.3-3-8.7l31.6-47.1c2.3-3.5,7.5-5.3,11.5-3.9h0
				C279.6,345,281,348.9,278.6,352.4z"/>
			<path d="M298.1,352.4l31.6,47.1c2.3,3.5,7.5,5.3,11.5,3.9h0c4-1.3,5.3-5.3,3-8.7l-31.6-47.1c-2.3-3.5-7.5-5.3-11.5-3.9h0
				C297.1,345,295.8,348.9,298.1,352.4z"/>
		</g>
	</g>
	<g>
		<path class="st0" d="M39.4,255.4h12.8v51.2h38.4v-51.2h12.8v102.4H90.6v-38.4H52.2v38.4H39.4V255.4z M52.2,242.6h38.4v12.8H52.2
			V242.6z"/>
		<path class="st0" d="M121.7,242.6h12.8V345h-12.8V242.6z M134.5,345h12.8v12.8h-12.8V345z"/>
		<path class="st0" d="M161,281h12.8v25.6h38.4V281H225v38.4h-51.2V345H161V281z M173.8,268.2h38.4V281h-38.4V268.2z M173.8,345
			h38.4v12.8h-38.4V345z M212.2,332.2H225V345h-12.8V332.2z"/>
		<path class="st0" d="M242,268.2h12.8v25.6H242V268.2z M242,332.2h12.8v25.6H242V332.2z M254.8,293.8h12.8v12.8h-12.8V293.8z
			 M254.8,319.4h12.8v12.8h-12.8V319.4z M267.6,306.6h12.8v12.8h-12.8V306.6z M280.4,293.8h12.8v12.8h-12.8V293.8z M280.4,319.4
			h12.8v12.8h-12.8V319.4z M293.2,268.2H306v25.6h-12.8V268.2z M293.2,332.2H306v25.6h-12.8V332.2z"/>
		<path class="st0" d="M319,255.4h12.8v38.4H319V255.4z M319,306.6h12.8V345H319V306.6z M331.8,242.6h38.4v12.8h-38.4V242.6z
			 M331.8,293.8h38.4v12.8h-38.4V293.8z M331.8,345h38.4v12.8h-38.4V345z M370.2,255.4H383v38.4h-12.8V255.4z M370.2,306.6H383V345
			h-12.8V306.6z"/>
		<path class="st0" d="M398.5,255.4h12.8v51.2h12.8v12.8h-12.8V345h-12.8V255.4z M411.3,242.6h38.4v12.8h-38.4V242.6z M411.3,345
			h38.4v12.8h-38.4V345z M424.2,293.8H437v12.8h-12.8V293.8z M449.8,255.4h12.8V345h-12.8v-51.2H437V281h12.8V255.4z"/>
		<path class="st0" d="M475.2,281H488v25.6h-12.8V281z M475.2,332.2H488V345h-12.8V332.2z M488,268.2h38.4V281H488V268.2z
			 M488,306.6h38.4v12.8H488V306.6z M488,345h38.4v12.8H488V345z M526.5,281h12.8v12.8h-12.8V281z M526.5,319.4h12.8V345h-12.8
			V319.4z"/>
		<path d="M559,242.6h12.8v25.6h38.4V281h-38.4v64h38.4v12.8H559V242.6z M610.2,281H623v64h-12.8V281z"/>
		<path d="M632.8,281h12.8v64h-12.8V281z M645.6,268.2H684V281h-38.4V268.2z M645.6,345H684v12.8h-38.4V345z M684,281h12.8v64H684
			V281z"/>
		<path d="M706.3,268.2h12.8v64h-12.8V268.2z M706.3,357.8h12.8v12.8h-12.8V357.8z M757.5,268.2h12.8v102.4h-12.8V345h-38.4v-12.8
			h38.4V268.2z M719.1,370.6h38.4v12.8h-38.4V370.6z"/>
	</g>
</g>
<g>
</g>
<g>
</g>
<g>
</g>
<g>
</g>
<g>
</g>
<g>
</g>
</svg>
